<svg width="22" height="22" viewBox="0 0 22 22" fill="none" xmlns="http://www.w3.org/2000/svg">
<path d="M8.02081 16.1443V20.3958C8.02081 20.6928 8.21148 20.9559 8.49381 21.0494C8.56439 21.0723 8.63681 21.0833 8.70831 21.0833C8.92281 21.0833 9.12998 20.9824 9.26198 20.8028L11.7489 17.4185L8.02081 16.1443Z" fill="#AEABA6"/>
<path d="M21.7112 0.127375C21.5003 -0.0220408 21.2235 -0.0422074 20.9943 0.0778756L0.369395 10.8487C0.125563 10.9761 -0.0183535 11.2364 0.00181306 11.5105C0.0228963 11.7855 0.205312 12.0202 0.464728 12.1091L6.19846 14.0689L18.4093 3.62811L8.96037 15.0122L18.5698 18.2966C18.6413 18.3204 18.7164 18.3332 18.7916 18.3332C18.9163 18.3332 19.04 18.2993 19.1491 18.2333C19.3232 18.127 19.4415 17.9482 19.4718 17.7475L21.9926 0.789207C22.0302 0.532541 21.922 0.277708 21.7112 0.127375Z" fill="#62605D"/>
</svg>
